<svg xmlns="http://www.w3.org/2000/svg" version="1.1" xmlns:xlink="http://www.w3.org/1999/xlink" xmlns:svgjs="http://svgjs.dev/svgjs" width="189.4" height="189.4"><svg id="SvgjsSvg1001" xmlns="http://www.w3.org/2000/svg" version="1.1" viewBox="0 0 189.4 189.4">
  <!-- Generator: Adobe Illustrator 29.2.1, SVG Export Plug-In . SVG Version: 2.1.0 Build 116)  -->
  <defs>
    <style>
      .st0 {
        fill: #231f20;
      }
    </style>
  </defs>
  <path class="st0" d="M94.7,189.4C42.5,189.4,0,146.9,0,94.7S42.5,0,94.7,0s94.7,42.5,94.7,94.7-42.5,94.7-94.7,94.7ZM94.7,9C47.4,9,9,47.4,9,94.7s38.4,85.7,85.7,85.7,85.7-38.4,85.7-85.7S141.9,9,94.7,9Z"></path>
  <path d="M70.8,40.1c3.4,1.5,7.9,3,8.4,7.4-3.7-1.4-9.1-4.1-12.1-.6,3.8.3,9.6,2,10.4,6.2-4,.2-9.1-1.3-12.6,2.6.6.9,2.6-.9,3,.7-11.8,10.6-20.2-2.2-16.1,4.5,1.7,1.5,3.9,2.7.6,3.4-3.8,2.6-5.1,9.1-7.1,13.2,7.1-5.5,16-10,21-17.9,1-3.7,14.3-8.2,8.1-2.6-8.4,10.9-17.5,27.1-3.3,37.5-4.1-4.5-6-28.5-1.7-11.9,9.5,7.7,1.2,33.3,17.7,31.7,19.5-11.6-6.4-11.3-2.8-17.7,5.2-2.3,11.9,2.4,17.7-.7,9.7,2.1-2.9,5.7-5.2,8.3-6.1,9.8,14.8,14.8,15,3.5-3.6,3.9-21.7-2.8-3.7-1.1,2.1-.8,3.2-1.3,4.3.8,2-5.4,1-11.2,2.1-16.8,9.6-11.8,2.8,1,4,4.4,21-21.4-18-47.9,3-39.5,4.2,6.8,9,12.2,14.7,17.5-4.5,1.5-15.5-10.1-9.6-2.3,3.2,3.8,7.2,6.4,10.3,10.9,1.9,1.5,5.1,11.2,5.6,8.4-.7-4-3.5-6.8-4.4-10.3,1.1-1.2,5.4,5.5,5.9,6.4,4.6,8.6,4,19.5,2.9,29-.4,3.3-1.9.8-1.6-1-3.8-11.6-16.1-16.2-19.8-26.6-8,12.4,5.6,19.8-2,17.6-2.5-.7-3-6.9-4-5.6-1.2,1.4-1.8,3.8-1.7,5.6,1.3-1.8,1.9.6,2.9,1.4,4.4,2.1,10.3,4.7,12.2,10.2,2-4.1-11.2-29-4.6-22.8,13.1,10.9,28.7,36,5.2,44.8-3.8-.5-5.1,7.6-9,9.6-4.1,2.3,2.1-8.7,0-11.2-1.9-9-10.2-17.4-5.7-2,.9,8.1.8-2.4,2.3-3,3.3,7.1-2,16.8-8.8,19.7-4.2,1.4,5-7.2,3.8-12.5-12.5,5.3-17.4,18.9-19.7,31.4-4.6-11.9-10.8-24.1-22.1-31.9-4.1,1.8,2.7,9.1,3.8,12.1-9.8-2.9-14.4-18-9.1-26.7-12.4,8.2,2.7,31.7-7.4,20.8-17.1-14.1.6-50.3-15.4-29.7,0,1.2,1.9-1.4,2.4-1.8.7-.6,4.1-3.3,4.7-2.1l-4,5.4c-7.1,8.6,6.2,21.9-.6,17.7-11.7-12.2-5.8-32.2-4.7-47.2,2-4.7,7.5-9.6,4.2-1.3,2-1.5,16.4-16.9,13.3-16.1-14.9,5-24.9,29.6-23.4,19.8,0-6.2,5.7-14.1,6.9-18.7-3.3,1.2-1.5-2.1-.5-3.6,7.2-4.3,1.6-11.8,5.1-18.1.5-3.5,12.2-8.3,9.3-3.4-3,7.7,4.5,11.6,8.9,4.5-1.9-1.4-5.5,1-7.7,1-2.2-7.7,13.5-8.4,4.3-10.5,1-1.1,4.8-.5,6.3-.6ZM60.5,79.7c-6.4,3.2-6.3,13.2-12.7,16.8,6.2-2.8,13.6-9.3,12.7-16.8ZM138.6,95.1c-3.3-4.3-5.4-9.9-9.1-13.8-.5,5.5,4.5,11.6,9.1,13.8ZM62.9,86.9c-1.9,7.2-9.8,13.2-13.3,18.7,5.9-4.9,15.8-17.9,8.8-.6-1.1,2.3-3.3,15.7-.9,9.8,3.5-6.9,19-6,12-15.8-1,3.2-3.9,6.7-7.8,6,7.5-4.5,3-11.3,1.4-18.2ZM132.7,137.7c10.7-6.5,12-20.4,2.9-29.1,2,9.5-.8,22-2.9,29.1ZM123.1,115.1c-2.2-.9-9.6-8.1-9.2-4.2,4.8,7.1,16.1,12.4,14.5,23.2,0,8.4,5.1-13.8-5.3-19ZM66.1,120c3.4-3.5,11.7-4.1,10.1-10.6-3.6,4-9.5,4.7-12.9,8.9-.9.7-2.3,4.3-3.3,3.3,0,0,.3-2.3.3-2.3-3,3.6-1.5,9.5-.8,13.8.6-4.7,2.9-10.1,6.7-13.1ZM107.8,118.3c-10.6-4.4-14.6-5.1-25.3,0,0,0-.5,3.8-.5,3.8,1.5-.9,1.3.8,1.7,1,1.7-.3,1.7,2.1,1.9,3.4,1.7-2.9,2.9,1,2.7-1.7,1-.5,1.6,1.6,2.1,1.6s.6-1,1.3-.1c.9,2.1,0,6.5,1.4,8.7-.4-1.9.4-3.6.6-5.4s-1-6.9,1.6-1.8c.7.5,1.4-2.2,1.8-2.2,1.6,1.3.2,3.7,0,5.2,2.1-1.1,2.1-6.5,4-6.6,1,7,2.1-5.5,3.3,7.1,2-2.8-1.4-9.7,2.8-9.4-.6-4.2,2.8,1.8.8-3.9ZM114.4,126.9c0-1.2.7-4.5-.8-5.4.3,1.2-.2,6.2.8,5.4ZM75,128.4v-5.8c-1.2,1.7-.9,4.1,0,5.8ZM110.4,124.2c-1-1.3,1.4,5.3,1,6.2,0-1.8.2-4.6-1-6.2ZM70.4,135.5c-.5-1.2.7-4.3-.3-5.1,0,0,0,6.3,0,6.3,1.7,1.4.6-1,.3-1.2ZM91.8,21.3c-8.1-6.1.9,6-.8,10.6-1.9-7.2-9.7-12.2-17-9.2,1.8,2.9,8.2,3.4,9.3,8.1-8.6-8.4-30.6,3.6-12.8-.6,1.4,0-8.4,2.6-9.4,5.7-.6.8-1.2,1.7.4,1.5,15.2-6.7,20.2,12.6,31.2,18.3,3.5,6.8-6.7,10.2-1.1,11.6,2.1.5,1.9,6.1,4,5.1.7-2.3,2.2-5.6,4.5-6.2-1.6-2.5-5.6-6.7-3-10.4,14.3-8.8,14.5-25.1,33.8-17.6-1.1-3.9-10.8-6.5-10-6.7,15.5,3.4-2.9-6.1-8.7-2.3-7.2,4.1,1.1-4.2,4.9-4.3-3.4-4.1-11.9-.2-15.4,3,0-2.1,4.5-4,5.5-4.6-1.7-3.9-8.5,1-9.9,3.7-.4-2.8,2.4-5.5,3.6-7.6-1.9-1.9-5.6,1.9-5.8,4.1-.2,9.1.2,1-3.3-2.2ZM126.2,45.7c-.3,2.4,9.9,1.5,4.5,7.4-2.5,1.5-5,.6-6.9-1.3-5-1.8-3.1-2,.9-1.7,14.9,4.3-8.7-10.3-11.4,3.3,9.8-3,13.7,11.6,23.2,6.5,5.2-3.1-3.1,3.6-2.3,3.9,3.2.5,4.8,2.1,6.2,5s2.4,6.4,2.1,6.8c0,0-2.9-2.2-2.9-2.2.5,5.7,9.6,12.1,10.7,19.3,4.3-3-3.8-14.8-5.5-20.1-.6-1.2,2.1-.5,2.6-.7-14.1-15.2-.7-14.2-9.7-24.3-2.6-3.2-7.7-3.6-11.3-2.1ZM109.1,70.4c3.1-1.6,6.1.5,8.3,2.6-2.2,4-10.8,4.3-10.2,9.9.2,4.3,4.2,8.5,2.1,12.7-2.9,2.1-1.8.5-2.5-2.2-5.2-9.4-2.8-14.1,2-22.7-9.5-14.4,3.6-8.4.3-.4ZM112.6,72.1c-2-1.4.4,3.7-2.7,3.2,1.6,1.6,4.7-1.4,2.7-3.2ZM81.3,69.8c-2.3,4.2,3.9,7.9,4.2,13.1,0,4-1.9,5.4-3,8.6-.3,2.9-1.1,8.3-3.4,2.4,3.1-14.2,4.8-12.6-7.7-20.9,1.8-2.3,5.7-3.8,8.5-2.6-2.7-2.2,1.3-10.3,4.1-7.6-.7,1.4-3.3,5-2.8,7ZM77.5,71.8c-3.7.1-1.3,5.4,1.1,3.6-1.8-.6-1.9-2.5-1.1-3.6ZM115.2,46.6c.5,1.6,1.8-.7,2-.8,3.4-2.8,8.9-4.9,13.1-5-3.5-5-14.7,0-15.1,5.9ZM107.2,103c-1.9,1.1-6-.1-6.9,2,12.6,3.1,17.5-7.6,6.9-2ZM77.2,101.3c-3,4.8,11.2,5.1,11.8,2.9-3.7-.1-8.6-2.5-11.8-2.9ZM110.8,47.3c1.7-4.4,7.7-7,10.2-9.6-3.8-.8-12.9,5.8-10.2,9.6ZM79.8,106.2c-3.1-.8-1.8,2.4-1.1,2.6,2.4.4,9.2.4,10.1-2.1-.7,0-8.7.1-9-.5ZM109.2,111.8c1.6-.8,1.4-2.7-.6-2s-.8,2.3.6,2ZM79.6,110c-.7,1.2,1.2,2.2,2,1.6,1.1-1.2-1-2.6-2-1.6ZM83.4,101.8c1.5,0,.8-2.5-.2-2.4-1.7.1-.9,2.4.2,2.4ZM107.4,100.9c.6-1.2-.5-1.7-1.6-1.3-1.6.5.6,3.5,1.6,1.3ZM105.6,111.2c-1.8.6-.5,3,1.1,2s.4-2.5-1.1-2ZM83.8,113.3c1.9.4,1.6-2.6-.6-1.8s-.5,1.6.6,1.8ZM110.7,99.3c-.7-1.4-2.3.2-1.8,1.1s2.6.6,1.8-1.1ZM85.2,109.7c-.2,2.2,2.1,2.2,1.9,0h-1.9ZM79.1,99.1l-.3,1.5c2.2.4,2.9-2.2.3-1.5ZM104.2,111l.3-1.3c-3.2-1-1.9,2.4-.3,1.3Z"></path>
</svg><style>@media (prefers-color-scheme: light) { :root { filter: contrast(1) brightness(1); } }
@media (prefers-color-scheme: dark) { :root { filter: invert(100%); } }
</style></svg>